<?xml version="1.0" encoding="utf-8"?>
<!-- Generator: Adobe Illustrator 13.0.0, SVG Export Plug-In . SVG Version: 6.00 Build 14948)  -->
<!DOCTYPE svg PUBLIC "-//W3C//DTD SVG 1.1//EN" "http://www.w3.org/Graphics/SVG/1.1/DTD/svg11.dtd">
<svg version="1.1" id="Layer_1" xmlns="http://www.w3.org/2000/svg" xmlns:xlink="http://www.w3.org/1999/xlink" x="0px" y="0px"
	 width="50px" height="50px" viewBox="0 0 50 50" enable-background="new 0 0 50 50" xml:space="preserve">
<rect fill="none" stroke="#FCFCFC" width="50" height="50"/>
<path fill="none" stroke="#FCFCFC" stroke-width="2" stroke-miterlimit="10" d="M30.217,35.252c0,0,4.049-2.318,5.109-2.875
	c1.057-0.559,2.152-0.7,2.816-0.294c1.008,0.616,9.463,6.241,10.176,6.739c0.711,0.498,1.055,1.924,0.076,3.32
	c-0.976,1.396-5.474,6.916-7.379,6.856c-1.91-0.062-9.847-0.235-24.813-15.207C1.238,18.826,1.061,10.887,1,8.978
	C0.939,7.07,6.459,2.571,7.855,1.595c1.398-0.975,2.825-0.608,3.321,0.078c0.564,0.781,6.124,9.21,6.736,10.176
	c0.419,0.66,0.265,1.761-0.294,2.819c-0.556,1.06-2.874,5.109-2.874,5.109s1.634,2.787,7.16,8.312
	C27.432,33.615,30.217,35.252,30.217,35.252z"/>
</svg>
