<svg width="64" height="64" xmlns="http://www.w3.org/2000/svg">

 <g>
  <title>background</title>
  <rect fill="none" id="canvas_background" height="402" width="582" y="-1" x="-1"/>
 </g>
 <g>
  <title>Layer 1</title>
  <path id="svg_2" fill="#333333" d="m32,27c-2.757,0 -5,2.243 -5,5s2.243,5 5,5s5,-2.243 5,-5s-2.243,-5 -5,-5zm0,8c-1.654,0 -3,-1.346 -3,-3s1.346,-3 3,-3s3,1.346 3,3s-1.346,3 -3,3z"/>
  <path id="svg_3" fill="#49ab81" d="m54,25l-16.356,0c-0.289,-0.234 -0.597,-0.445 -0.914,-0.642c2.663,-2.064 4.27,-5.239 4.27,-8.669l0,-14.689l-7,0c-4.962,0 -9,4.038 -9,9l0,16.356c-0.234,0.289 -0.445,0.597 -0.642,0.914c-2.064,-2.663 -5.24,-4.27 -8.669,-4.27l-14.689,0l0,7c0,4.963 4.038,9 9,9l16.356,0c0.29,0.234 0.597,0.445 0.914,0.642c-2.663,2.064 -4.27,5.239 -4.27,8.67l0,14.688l7,0c4.962,0 9,-4.037 9,-9l0,-16.356c0.234,-0.29 0.445,-0.597 0.642,-0.914c2.064,2.663 5.239,4.27 8.669,4.27l14.689,0l0,-7c0,-4.962 -4.038,-9 -9,-9zm-22,14c-3.86,0 -7,-3.141 -7,-7c0,-3.86 3.14,-7 7,-7s7,3.14 7,7c0,3.859 -3.14,7 -7,7zm2,-36l5,0l0,12.689c0,3.171 -1.68,6.075 -4.393,7.699c-0.826,-0.25 -1.7,-0.388 -2.607,-0.388c-0.338,0 -0.671,0.022 -1,0.059l0,-6.059c0,-1.565 0.748,-3.061 2,-4l1.6,-1.2l-1.2,-1.6l-1.6,1.2c-1.753,1.315 -2.8,3.408 -2.8,5.6l0,6.525c-0.711,0.252 -1.384,0.583 -2,0.997l0,-14.522c0,-3.86 3.14,-7 7,-7zm-31,27l0,-5l12.689,0c3.171,0 6.075,1.68 7.699,4.393c-0.25,0.826 -0.388,1.7 -0.388,2.607c0,0.338 0.022,0.671 0.059,1l-6.059,0c-1.565,0 -3.061,-0.748 -4,-2l-1.2,-1.6l-1.6,1.2l1.2,1.6c1.315,1.753 3.408,2.8 5.6,2.8l6.525,0c0.252,0.711 0.583,1.384 0.997,2l-14.522,0c-3.86,0 -7,-3.141 -7,-7zm27,31l-5,0l0,-12.688c0,-3.171 1.681,-6.076 4.394,-7.7c0.825,0.25 1.7,0.388 2.606,0.388c0.338,0 0.671,-0.022 1,-0.059l0,6.059c0,1.565 -0.748,3.061 -2,4l-1.6,1.2l1.2,1.6l1.6,-1.2c1.753,-1.314 2.8,-3.408 2.8,-5.6l0,-6.525c0.711,-0.252 1.384,-0.583 2,-0.997l0,14.522c0,3.859 -3.14,7 -7,7zm31,-22l-12.689,0c-3.171,0 -6.075,-1.68 -7.699,-4.393c0.25,-0.826 0.388,-1.7 0.388,-2.607c0,-0.338 -0.022,-0.671 -0.059,-1l6.059,0c1.565,0 3.061,0.748 4,2l1.2,1.6l1.6,-1.199l-1.2,-1.601c-1.315,-1.753 -3.408,-2.8 -5.6,-2.8l-6.525,0c-0.252,-0.711 -0.583,-1.384 -0.997,-2l14.522,0c3.86,0 7,3.14 7,7l0,5z"/>
  <path id="svg_4" fill="#333333" d="m56.141,17.819l1.724,-1.015c-3.313,-5.628 -8.457,-10.09 -14.485,-12.564l-0.759,1.851c5.626,2.308 10.427,6.473 13.52,11.728z"/>
  <path id="svg_5" fill="#333333" d="m57.909,21.38l1.85,-0.76c-0.264,-0.642 -0.554,-1.284 -0.862,-1.909l-1.793,0.887c0.287,0.583 0.558,1.183 0.805,1.782z"/>
  <path id="svg_6" fill="#333333" d="m50.149,19.563l1.648,-1.132c-2.135,-3.111 -5.012,-5.708 -8.318,-7.512l-0.958,1.756c3.032,1.654 5.669,4.036 7.628,6.888z"/>
  <path id="svg_7" fill="#333333" d="m52.251,23.392l1.84,-0.784c-0.302,-0.709 -0.642,-1.411 -1.01,-2.086l-1.756,0.958c0.338,0.619 0.649,1.262 0.926,1.912z"/>
  <path id="svg_8" fill="#333333" d="m20.414,6.509l-0.829,-1.82c-6.984,3.18 -12.434,8.837 -15.345,15.932l1.851,0.759c2.717,-6.622 7.804,-11.903 14.323,-14.871z"/>
  <path id="svg_9" fill="#333333" d="m23.31,5.382l-0.62,-1.902c-0.554,0.18 -1.1,0.377 -1.639,0.588l0.729,1.862c0.504,-0.197 1.013,-0.38 1.53,-0.548z"/>
  <path id="svg_10" fill="#333333" d="m10.919,20.521l1.756,0.958c1.654,-3.032 4.037,-5.671 6.891,-7.629l-1.131,-1.65c-3.113,2.136 -5.711,5.014 -7.516,8.321z"/>
  <path id="svg_11" fill="#333333" d="m9.792,49.045l-1.586,1.219c3.232,4.206 7.525,7.49 12.415,9.496l0.759,-1.85c-4.563,-1.873 -8.57,-4.938 -11.588,-8.865z"/>
  <path id="svg_12" fill="#333333" d="m7.483,45.521l-1.75,0.969c0.387,0.7 0.808,1.394 1.25,2.06l1.667,-1.104c-0.413,-0.623 -0.805,-1.27 -1.167,-1.925z"/>
  <path id="svg_13" fill="#333333" d="m13.851,44.437l-1.648,1.133c2.136,3.109 5.012,5.707 8.318,7.512l0.958,-1.756c-3.031,-1.655 -5.669,-4.037 -7.628,-6.889z"/>
  <path id="svg_14" fill="#333333" d="m44.4,57.104l0.887,1.793c6.559,-3.245 11.699,-8.756 14.473,-15.517l-1.851,-0.76c-2.589,6.311 -7.387,11.454 -13.509,14.484z"/>
  <path id="svg_15" fill="#333333" d="m40.689,58.619l0.621,1.9c0.704,-0.229 1.4,-0.486 2.07,-0.762l-0.762,-1.85c-0.622,0.258 -1.272,0.497 -1.929,0.712z"/>
  <path id="svg_16" fill="#333333" d="m53.081,43.479l-1.756,-0.957c-1.845,3.382 -4.559,6.234 -7.847,8.25l1.045,1.705c3.586,-2.199 6.545,-5.31 8.558,-8.998z"/>
 </g>
</svg>