<svg width="64" height="64" xmlns="http://www.w3.org/2000/svg">

 <g>
  <title>background</title>
  <rect fill="none" id="canvas_background" height="402" width="582" y="-1" x="-1"/>
 </g>
 <g>
  <title>Layer 1</title>
  <path stroke="#2a2c38" id="svg_3" fill="#49ab81" d="m28.758,24.929c-2.571,0 -4.653,2.084 -4.653,4.654c0,2.566 2.082,4.653 4.653,4.653c2.57,0 4.652,-2.086 4.652,-4.653c0,-2.57 -2.082,-4.654 -4.652,-4.654zm0,6.967c-1.279,0 -2.313,-1.038 -2.313,-2.314c0,-1.277 1.035,-2.314 2.313,-2.314c1.278,0 2.312,1.038 2.312,2.314c0,1.276 -1.034,2.314 -2.312,2.314z"/>
  <path stroke="#2a2c38" id="svg_5" fill="#49ab81" d="m28.758,17.805c-6.505,0 -11.779,5.273 -11.779,11.778c0,6.504 5.273,11.779 11.779,11.779c6.504,0 11.776,-5.275 11.776,-11.779c0,-6.505 -5.272,-11.778 -11.776,-11.778zm0,20.848c-5.009,0 -9.073,-4.063 -9.073,-9.07c0,-5.011 4.063,-9.073 9.073,-9.073c5.006,0 9.071,4.062 9.071,9.073c0,5.007 -4.065,9.07 -9.071,9.07z"/>
  <path id="svg_6" fill="#241F20" d="m62.976,49.662c0.038,0.02 0.161,0.086 0.302,0.179l-0.018,0l-0.284,-0.179z"/>
  <path id="svg_7" fill="#241F20" d="m63.296,49.858l-0.036,-0.018l0.018,0c-0.001,0.011 0.012,0.011 0.018,0.018z"/>
  <path stroke="#2a2c38" id="svg_9" fill="#49ab81" d="m63.458,49.985l-0.16,-0.125c-0.008,-0.01 -0.021,-0.01 -0.021,-0.02l-0.017,0l-0.284,-0.179l-0.01,0l-0.01,-0.01l-19.705,-11.842l-0.252,-0.15c-0.534,-0.287 -1.743,-0.753 -1.743,1.017l0,23.719c0,0 0.037,1.87 1.737,0.896c0.002,0 0.004,0 0.004,0l20.253,-11.605l0,-0.008c0.018,-0.01 0.037,-0.027 0.065,-0.037c0.067,-0.048 0.161,-0.104 0.266,-0.191c0.71,-0.577 0.294,-1.125 -0.123,-1.465zm-5.341,1.429c-0.063,0.05 -0.117,0.082 -0.156,0.111c-0.018,0.006 -0.03,0.018 -0.04,0.021l0,0.008l-12.046,6.897l-0.002,0c-1.013,0.581 -1.035,-0.533 -1.035,-0.533l0,-14.105c0,-1.053 0.72,-0.775 1.039,-0.603l0.149,0.09l11.72,7.044l0.004,0.005l0.004,0l0.169,0.106l0.014,0c0,0.006 0.007,0.006 0.013,0.013l0.095,0.071c0.245,0.203 0.494,0.53 0.072,0.875z"/>
  <path stroke="#2a2c38" id="svg_11" fill="#49ab81" d="m56.251,40.126854c1.32,-3.315 2.091,-6.907 2.091,-10.692c0,-16.101 -13.053,-29.153 -29.153,-29.153c-16.102,0 -29.153,13.053 -29.153,29.153s13.052,29.152 29.153,29.152c2.835,0 5.561,-0.438 8.15,-1.193c0.609,-0.233 0.844,-0.606 0.915,-0.928l0,-0.921c0,-1.589 -2.183,-1.098 -2.183,-1.098l0,0c-2.19,0.614 -4.497,0.951 -6.884,0.951c-14.338,0 -25.963,-11.625 -25.963,-25.964c0,-14.339 11.625,-25.964 25.963,-25.964c14.338,0 25.965,11.624 25.965,25.963c0,2.856 -0.486,5.589 -1.347,8.157c0.004,0 0.02,-0.006 0.02,-0.006s-0.721,2.094 0.128,2.632l0.663,0.414c0.012,0.008 1.047,0.433 1.635,-0.503z"/>
  <path stroke="#2a2c38" id="svg_12" fill="#49ab81" d="m25.929854,7.335c0,0 8.036,-1.215 14.866,3.414c2.789,1.905 6.83,5.155 9.224,11.886c0.296,1.28 -0.59,1.643 -0.852,1.773c-0.265,0.13 -1.677,0.459 -2.138,-0.789c-0.456,-1.247 -5.349,-14.018 -18.908,-13.295c-2.135,0.229 -2.987,0.492 -3.644,-0.591c-0.295,-1.085 -0.212,-2.038 1.452,-2.398z"/>
  <path stroke="#2a2c38" id="svg_13" fill="#49ab81" d="m6.792854,34.427c0,0 1.634,7.963 8.337,12.774c2.749,1.961 7.196,4.631 14.34,4.554c1.303,-0.164 1.335,-1.122 1.37,-1.411c0.031,-0.293 -0.147,-1.733 -1.478,-1.733c-1.329,0 -15.002,-0.182 -19.008,-13.155c-0.521,-2.083 -0.568,-2.976 -1.812,-3.218c-1.12,0.096 -1.985,0.502 -1.749,2.189z"/>
 </g>
</svg>