<svg width="128" height="128" xmlns="http://www.w3.org/2000/svg">

 <g>
  <title>background</title>
  <rect fill="none" id="canvas_background" height="402" width="582" y="-1" x="-1"/>
 </g>
 <g>
  <title>Layer 1</title>
  <rect id="svg_5" fill="#2a2c38" y="62" x="30" width="68" height="4"/>
  <path id="svg_3" fill="#49ab81" d="m94,121l-60,0c-3.309,0 -6,-2.691 -6,-6l0,-102c0,-3.309 2.691,-6 6,-6l60,0c3.309,0 6,2.691 6,6l0,102c0,3.309 -2.691,6 -6,6zm-60,-110c-1.103,0 -2,0.897 -2,2l0,102c0,1.103 0.897,2 2,2l60,0c1.103,0 2,-0.897 2,-2l0,-102c0,-1.103 -0.897,-2 -2,-2l-60,0z"/>
  <path id="svg_7" fill="#2a2c38" d="m90,86c-1.104,0 -2,-0.896 -2,-2l0,-10c0,-1.104 0.896,-2 2,-2s2,0.896 2,2l0,10c0,1.104 -0.896,2 -2,2z"/>
  <path id="svg_9" fill="#2a2c38" d="m64,50c-1.104,0 -2,-0.896 -2,-2l0,-26c0,-1.104 0.896,-2 2,-2s2,0.896 2,2l0,26c0,1.104 -0.896,2 -2,2z"/>
  <path id="svg_11" fill="#2a2c38" d="m75.257,43.5c-0.339,0 -0.683,-0.086 -0.998,-0.268l-22.518,-13c-0.957,-0.553 -1.284,-1.775 -0.732,-2.732c0.553,-0.956 1.772,-1.285 2.732,-0.732l22.518,13c0.957,0.553 1.284,1.775 0.732,2.732c-0.371,0.642 -1.043,1 -1.734,1z"/>
  <path id="svg_13" fill="#2a2c38" d="m52.743,43.5c-0.691,0 -1.363,-0.358 -1.734,-1c-0.552,-0.957 -0.225,-2.18 0.732,-2.732l22.518,-13c0.958,-0.553 2.179,-0.224 2.732,0.732c0.552,0.957 0.225,2.18 -0.732,2.732l-22.518,13c-0.315,0.182 -0.659,0.268 -0.998,0.268z"/>
 </g>
</svg>