<svg width="64" height="64" xmlns="http://www.w3.org/2000/svg">

 <g>
  <title>background</title>
  <rect fill="none" id="canvas_background" height="402" width="582" y="-1" x="-1"/>
 </g>
 <g>
  <title>Layer 1</title>
  <path stroke="#2a2c38" id="svg_3" fill="#49ab81" d="m41,63l-18,0c-3.8,0 -7,-6.7 -7,-10l0,-52l32,0l0,52c0,3.3 -3.2,10 -7,10zm-23,-60l0,50c0,2.6 2.8,8 5,8l18,0c2.3,0 5,-5.4 5,-8l0,-50l-28,0z"/>
  <rect id="svg_5" y="52" x="17" width="30" height="2" fill="#49ab81"/>
  <rect id="svg_7" y="27" x="20" width="2" height="26" fill="#49ab81"/>
  <rect id="svg_9" y="5" x="20" width="2" height="19" fill="#49ab81"/>
  <rect id="svg_11" y="5" x="42" width="2" height="6" fill="#49ab81"/>
  <path id="svg_13" fill="#49ab81" d="m44,53l-2,0l0,-38c-1,0 -2.7,0.2 -4.6,1c-10.2,4.1 -16.9,0.9 -17,0.9l0.6,-0.9l0.4,-0.9c0.1,0 6.1,2.6 15.2,-1c3.4,-1.4 6.4,-1.1 6.5,-1.1l0.9,0.1l0,39.9z"/>
  <rect id="svg_15" y="48" x="38" width="2" height="2" fill="#49ab81"/>
  <rect id="svg_17" y="48" x="34" width="2" height="2" fill="#49ab81"/>
  <rect id="svg_19" y="48" x="30" width="2" height="2" fill="#49ab81"/>
 </g>
</svg>