<svg width="500" height="500" xmlns="http://www.w3.org/2000/svg">

 <g>
  <title>background</title>
  <rect fill="none" id="canvas_background" height="402" width="582" y="-1" x="-1"/>
 </g>
 <g>
  <title>Layer 1</title>
  <path stroke-width="6" stroke="#2a2c38" id="svg_1" fill-rule="evenodd" fill="#49ab81" d="m226.629591,136.432c0,12.536 10.177,22.713 22.713,22.713c12.537,0 22.715,-10.177 22.715,-22.713s-10.178,-22.713 -22.715,-22.713c-12.536,-0.001 -22.713,10.177 -22.713,22.713zm0,190.796c0,-12.539 10.177,-22.715 22.713,-22.715c12.537,0 22.715,10.176 22.715,22.715c0,12.537 -10.178,22.711 -22.715,22.711c-12.536,-0.001 -22.713,-10.174 -22.713,-22.711zm22.713,-59.056c-32.615,0 -59.056,26.441 -59.056,59.056c0,32.616 26.441,59.057 59.056,59.057c32.614,0 59.056,-26.44 59.056,-59.057c0,-32.615 -26.442,-59.056 -59.056,-59.056zm-168.082,163.539c0,20.078 16.264,36.34 36.343,36.34l263.48,0c20.079,0 36.34,-16.262 36.34,-36.34l0,-363.421c0,-20.077 -16.261,-36.34 -36.34,-36.34l-263.48,0c-20.079,0 -36.343,16.264 -36.343,36.34l0,363.421zm129.92,-191.976c10.728,-5.09 18.173,-16.176 18.173,-28.894c0,-9.813 -4.446,-18.535 -11.446,-24.35c-16.628,-10.448 -27.622,-28.978 -27.622,-50.06c0,-32.615 26.441,-59.056 59.056,-59.056c32.614,0 59.056,26.441 59.056,59.056c0,20.172 -10.179,38.067 -25.622,48.697c-8.086,5.728 -13.268,15.177 -13.268,25.807c0,12.807 7.543,23.892 18.448,28.887l0.726,0.365c33.069,14.994 56.056,48.338 56.056,87.04c0,52.694 -42.702,95.396 -95.396,95.396c-52.694,0 -95.398,-42.702 -95.398,-95.396c0.001,-39.164 23.532,-72.771 57.237,-87.492z" clip-rule="evenodd"/>
 </g>
</svg>